<svg xmlns="http://www.w3.org/2000/svg" viewBox="0 0 64 64">
  <rect width="64" height="64" rx="14" fill="#f7f8fa"/>
  <rect x="4" y="4" width="56" height="56" rx="12" fill="#ffffff" stroke="#d9e0e8" stroke-width="2"/>
  <path d="M24 10a14 14 0 0 0-14 14c0 10 14 28 14 28s14-18 14-28a14 14 0 0 0-14-14zm0 20a6 6 0 1 1 0-12 6 6 0 0 1 0 12z" fill="#2457c5"/>
  <path d="M18 43h8l8-10 7 6 10-16" fill="none" stroke="#16a36a" stroke-width="5" stroke-linecap="round" stroke-linejoin="round"/>
  <circle cx="51" cy="23" r="4" fill="#16a36a"/>
</svg>
